<?xml version="1.0" encoding="utf-8"?>
<!-- Generator: Adobe Illustrator 16.0.0, SVG Export Plug-In . SVG Version: 6.00 Build 0)  -->
<!DOCTYPE svg PUBLIC "-//W3C//DTD SVG 1.1//EN" "http://www.w3.org/Graphics/SVG/1.1/DTD/svg11.dtd">
<svg version="1.1" id="Capa_1" xmlns="http://www.w3.org/2000/svg" xmlns:xlink="http://www.w3.org/1999/xlink" x="0px" y="0px"
	 width="681.068px" height="735.731px" viewBox="0 0 681.068 735.731" enable-background="new 0 0 681.068 735.731"
	 xml:space="preserve">
<g>
	<circle fill="#F26922" cx="346.327" cy="363.281" r="294.029"/>
</g>
<path fill="#FFFFFF" d="M470.567,258.877l-44.428,31.406l-2.026-2.871c-5.356-7.573-13.711-12.289-23.535-13.269
	c-9.396-0.943-19.025,1.691-27.112,7.403L203.32,401.816c-1.733,1.228-2.908,3.094-3.268,5.187c-0.359,2.093,0.128,4.248,1.353,5.98
	l17.041,24.11l-35.773,25.284l-14.216-20.113c-2.556-3.616-7.553-4.472-11.164-1.92c-3.611,2.557-4.471,7.553-1.919,11.164
	l37.684,53.311c1.563,2.208,4.037,3.388,6.548,3.388c1.596,0,3.21-0.476,4.616-1.468c3.611-2.557,4.471-7.553,1.919-11.164
	l-14.22-20.114l35.773-25.284l17.042,24.11c1.563,2.208,4.037,3.387,6.547,3.387c1.597,0,3.21-0.477,4.616-1.469l170.142-120.268
	c8.082-5.716,13.773-13.914,16.023-23.088c2.354-9.592,0.699-19.043-4.653-26.617l-2.026-2.87l44.427-31.402
	c3.611-2.556,4.471-7.553,1.919-11.168C479.177,257.182,474.181,256.326,470.567,258.877z M253.198,458.498l-17.037-24.097
	c-0.004-0.004-0.004-0.009-0.009-0.013c-0.003-0.003-0.008-0.008-0.008-0.012l-17.037-24.098l28.486-20.135l10.841,15.333
	c1.336,1.893,3.458,2.902,5.613,2.902c1.369,0,2.754-0.408,3.954-1.262c3.098-2.188,3.834-6.472,1.642-9.566l-10.841-15.333
	l19.08-13.488l10.588,14.981c1.34,1.895,3.458,2.903,5.613,2.903c1.368,0,2.754-0.409,3.954-1.256
	c3.098-2.192,3.834-6.474,1.646-9.571l-10.589-14.986l19.075-13.484l10.341,14.63c1.34,1.894,3.458,2.902,5.613,2.902
	c1.368,0,2.754-0.409,3.954-1.257c3.098-2.192,3.834-6.473,1.646-9.571l-10.34-14.629l27.059-19.126l34.087,48.22L253.198,458.498z
	 M523.993,275.017c3.413,3.623,3.244,9.331-0.38,12.744c-3.623,3.413-9.331,3.243-12.744-0.38l0,0l0,0
	c-4.938-5.241-4.942-12.355-7.32-19.126c-0.394-1.117,0.699-2.143,1.787-1.684C511.958,269.342,519.055,269.772,523.993,275.017z
	 M495.831,227.86c-1.071,5.265-5.402,8.326-8.509,12.69c-0.513,0.72-1.604,0.496-1.795-0.364c-1.153-5.228-3.945-9.74-2.879-15.002
	c0.741-3.64,4.29-5.989,7.93-5.249C494.221,220.667,496.57,224.221,495.831,227.86z M527.224,257.571L527.224,257.571
	c-10.481,1.981-19.361-3.677-29.706-6.113c-1.704-0.401-2.118-2.577-0.679-3.574c8.739-6.047,14.937-14.563,25.417-16.549l0,0l0,0
	c7.242-1.374,14.229,3.388,15.602,10.634C539.231,249.215,534.467,256.197,527.224,257.571z"/>
</svg>
